<?xml version="1.0" encoding="UTF-8" standalone="no"?>
<!-- Created with Inkscape (http://www.inkscape.org/) -->

<svg
   width="210mm"
   height="297mm"
   viewBox="0 0 210 297"
   version="1.1"
   id="svg5"
   inkscape:version="1.1.2 (b8e25be833, 2022-02-05)"
   sodipodi:docname="TEC_logo.svg"
   xmlns:inkscape="http://www.inkscape.org/namespaces/inkscape"
   xmlns:sodipodi="http://sodipodi.sourceforge.net/DTD/sodipodi-0.dtd"
   xmlns="http://www.w3.org/2000/svg"
   xmlns:svg="http://www.w3.org/2000/svg">
  <sodipodi:namedview
     id="namedview7"
     pagecolor="#ffffff"
     bordercolor="#666666"
     borderopacity="1.0"
     inkscape:pageshadow="2"
     inkscape:pageopacity="0.0"
     inkscape:pagecheckerboard="0"
     inkscape:document-units="mm"
     showgrid="false"
     inkscape:zoom="5.1241863"
     inkscape:cx="172.12489"
     inkscape:cy="637.56464"
     inkscape:window-width="1920"
     inkscape:window-height="1017"
     inkscape:window-x="-8"
     inkscape:window-y="-8"
     inkscape:window-maximized="1"
     inkscape:current-layer="g837" />
  <defs
     id="defs2">
    <clipPath
       clipPathUnits="userSpaceOnUse"
       id="clipPath847">
      <path
         d="M 0,189.212 H 283.465 V 25.511 H 0 Z"
         id="path845" />
    </clipPath>
    <clipPath
       clipPathUnits="userSpaceOnUse"
       id="clipPath861">
      <path
         d="M 0,0 H 841.89 V 595.275 H 0 Z"
         id="path859" />
    </clipPath>
    <clipPath
       clipPathUnits="userSpaceOnUse"
       id="clipPath877">
      <path
         d="m 0,595.275 v -82.912 l 27.643,26.84 h 785.691 l 28.556,-27.206 v 83.278 z"
         id="path875" />
    </clipPath>
    <clipPath
       clipPathUnits="userSpaceOnUse"
       id="clipPath913">
      <path
         d="M 0,0 H 841.89 V 595.275 H 0 Z"
         id="path911" />
    </clipPath>
    <clipPath
       clipPathUnits="userSpaceOnUse"
       id="clipPath1249">
      <path
         d="M 594.567,213.449 H 826.858 V 322.717 H 594.567 Z"
         id="path1247" />
    </clipPath>
    <clipPath
       clipPathUnits="userSpaceOnUse"
       id="clipPath2185">
      <path
         d="M 594.567,100.969 H 774.86 V 210.236 H 594.567 Z"
         id="path2183" />
    </clipPath>
    <clipPath
       clipPathUnits="userSpaceOnUse"
       id="clipPath2957">
      <path
         d="m 738.782,52.441 h 86.099 v 32.342 h -86.099 z"
         id="path2955" />
    </clipPath>
    <clipPath
       clipPathUnits="userSpaceOnUse"
       id="clipPath2957-1">
      <path
         d="m 738.782,52.441 h 86.099 v 32.342 h -86.099 z"
         id="path2955-0" />
    </clipPath>
  </defs>
  <g
     inkscape:label="Ebene 1"
     inkscape:groupmode="layer"
     id="layer1">
    <g
       id="g837"
       inkscape:label="6529_aus_HSRT_Flyer_TEC_Rtl_Modell_DRUCK_FA"
       transform="matrix(0.35277777,0,0,-0.35277777,1.8587933,281.38242)">
      <g
         id="g2939"
         transform="translate(74.72197,352.44923)">
        <path
           d="m 0,0 v -32.342 l 1.838,1.837 v 28.666 z"
           style="fill:#656263;fill-opacity:1;fill-rule:nonzero;stroke:none"
           id="path2941" />
      </g>
      <g
         id="g2943"
         transform="translate(91.07377,347.41843)">
        <path
           d="M 0,0 V -16.144 H -3.404 V 0 H -8.656 V 3.242 H 5.252 V 0 Z"
           style="fill:#127bca;fill-opacity:1;fill-rule:nonzero;stroke:none"
           id="path2945" />
      </g>
      <g
         id="g2947"
         transform="translate(100.28817,331.27423)">
        <path
           d="M 0,0 V 19.386 H 12.189 V 16.144 H 3.404 v -4.895 h 8.267 V 8.007 H 3.404 V 3.242 h 8.785 V 0 Z"
           style="fill:#127bca;fill-opacity:1;fill-rule:nonzero;stroke:none"
           id="path2949" />
      </g>
      <g
         id="g2951"
         transform="translate(-694.59803,267.66563)">
        <g
           id="g2953"
           clip-path="url(#clipPath2957-1)">
          <g
             id="g2959"
             transform="translate(824.2007,66.1373)">
            <path
               d="m 0,0 c -0.843,-1.135 -2.302,-2.691 -4.117,-2.691 h -4.052 c -0.714,0 -1.493,0.26 -2.012,0.584 -0.681,0.389 -1.978,1.718 -2.366,2.302 -0.39,0.583 -0.519,1.232 -0.519,1.847 v 10.212 c 0,0.616 0.129,1.232 0.519,1.816 0.388,0.551 1.685,1.944 2.366,2.333 0.519,0.292 1.298,0.584 2.012,0.584 h 4.052 c 1.815,0 3.274,-1.588 4.117,-2.691 0.259,-0.356 0.389,-0.616 0.681,-1.134 l -3.307,-0.94 c 0,0 -0.972,1.199 -1.458,1.491 -0.033,0.032 -0.098,0.032 -0.13,0.032 h -3.825 c -0.065,0 -0.13,-0.032 -0.13,-0.032 -0.422,-0.227 -1.136,-0.908 -1.46,-1.426 -0.033,-0.065 -0.033,-0.292 -0.033,-0.357 V 2.075 c 0,-0.389 1.006,-1.232 1.493,-1.491 0.032,-0.033 0.194,-0.033 0.227,-0.033 h 3.696 c 0.032,0 0.097,0 0.162,0.033 0.68,0.324 1.458,1.523 1.458,1.523 L 0.681,1.232 C 0.421,0.649 0.259,0.357 0,0"
               style="fill:#127bca;fill-opacity:1;fill-rule:nonzero;stroke:none"
               id="path2961" />
          </g>
          <g
             id="g2963"
             transform="translate(780.0987,59.2729)">
            <path
               d="M 0,0 V -4.741 H -0.745 V 0 H -2.298 V 0.708 H 1.553 V 0 Z"
               style="fill:#656263;fill-opacity:1;fill-rule:nonzero;stroke:none"
               id="path2965" />
          </g>
          <g
             id="g2967"
             transform="translate(784.585,57.3381)">
            <path
               d="M 0,0 C 0,0.019 0,0.082 -0.009,0.1 -0.082,0.228 -0.273,0.391 -0.4,0.463 -0.427,0.472 -0.454,0.491 -0.509,0.491 H -1.408 C -1.58,0.491 -1.826,0.228 -1.898,0.1 -1.907,0.091 -1.916,0.055 -1.916,0 V -0.499 H 0 Z m 0.136,-2.669 c -0.163,-0.119 -0.399,-0.182 -0.618,-0.182 h -0.926 c -0.218,0 -0.463,0.063 -0.626,0.182 -0.137,0.1 -0.364,0.335 -0.436,0.435 -0.109,0.146 -0.155,0.327 -0.155,0.518 v 1.735 c 0,0.19 0.046,0.372 0.155,0.517 0.072,0.1 0.299,0.336 0.436,0.436 0.163,0.118 0.408,0.182 0.626,0.182 H -0.5 c 0.218,0 0.463,-0.064 0.627,-0.182 C 0.263,0.872 0.49,0.636 0.563,0.536 0.672,0.382 0.708,0.2 0.708,0.019 v -1.172 h -2.624 v -0.545 c 0,-0.054 0.009,-0.091 0.018,-0.1 0.072,-0.127 0.318,-0.39 0.49,-0.39 h 0.945 c 0.054,0 0.081,0.018 0.109,0.027 0.127,0.064 0.308,0.245 0.372,0.363 l 0.054,0.1 0.663,-0.218 C 0.617,-2.188 0.363,-2.515 0.136,-2.669"
               style="fill:#656263;fill-opacity:1;fill-rule:nonzero;stroke:none"
               id="path2969" />
          </g>
          <g
             id="g2971"
             transform="translate(789.6298,55.1045)">
            <path
               d="M 0,0 C -0.073,-0.1 -0.291,-0.336 -0.427,-0.436 -0.59,-0.554 -0.826,-0.617 -1.044,-0.617 h -0.927 c -0.218,0 -0.463,0.063 -0.626,0.181 -0.136,0.1 -0.364,0.336 -0.436,0.436 -0.109,0.155 -0.145,0.336 -0.145,0.518 v 1.735 c 0,0.181 0.036,0.362 0.145,0.517 0.072,0.1 0.3,0.336 0.436,0.436 0.163,0.118 0.408,0.181 0.626,0.181 h 0.9 c 0.218,0 0.454,-0.063 0.617,-0.181 0.209,-0.145 0.5,-0.5 0.608,-0.763 L -0.508,2.234 c -0.1,0.191 -0.328,0.491 -0.546,0.491 H -1.961 C -2.016,2.725 -2.043,2.706 -2.07,2.697 -2.198,2.625 -2.379,2.462 -2.452,2.334 -2.461,2.325 -2.47,2.289 -2.47,2.234 V 0.536 c 0,-0.055 0.009,-0.091 0.018,-0.1 0.073,-0.127 0.254,-0.29 0.382,-0.363 0.027,-0.01 0.054,-0.027 0.109,-0.027 h 0.935 c 0.054,0 0.081,0.017 0.109,0.027 0.172,0.09 0.327,0.282 0.427,0.463 L 0.173,0.318 C 0.109,0.163 0.046,0.063 0,0"
               style="fill:#656263;fill-opacity:1;fill-rule:nonzero;stroke:none"
               id="path2973" />
          </g>
          <g
             id="g2975"
             transform="translate(793.4393,54.5321)">
            <path
               d="m 0,0 v 2.788 c 0,0.055 -0.009,0.091 -0.018,0.1 -0.073,0.127 -0.254,0.318 -0.382,0.39 -0.027,0.01 -0.054,0.019 -0.108,0.019 h -0.591 c -0.2,0 -0.635,-0.391 -0.726,-0.526 V 0 h -0.709 v 5.449 h 0.709 V 3.606 C -1.644,3.769 -1.38,3.96 -1.126,3.96 H -0.5 c 0.209,0 0.455,-0.073 0.618,-0.191 C 0.254,3.67 0.482,3.424 0.554,3.324 0.663,3.169 0.708,2.997 0.708,2.806 V 0 Z"
               style="fill:#656263;fill-opacity:1;fill-rule:nonzero;stroke:none"
               id="path2977" />
          </g>
          <g
             id="g2979"
             transform="translate(797.9432,54.5321)">
            <path
               d="m 0,0 v 2.806 c 0,0.019 0,0.082 -0.009,0.1 -0.073,0.128 -0.263,0.3 -0.39,0.372 -0.028,0.01 -0.055,0.019 -0.109,0.019 h -0.646 c -0.172,0 -0.608,-0.354 -0.699,-0.472 V 0 h -0.708 v 3.188 l -0.073,0.726 h 0.709 L -1.889,3.596 C -1.708,3.76 -1.435,3.96 -1.181,3.96 H -0.5 c 0.218,0 0.464,-0.064 0.627,-0.182 C 0.263,3.678 0.491,3.442 0.563,3.342 0.672,3.188 0.708,3.006 0.708,2.825 V 0 Z"
               style="fill:#656263;fill-opacity:1;fill-rule:nonzero;stroke:none"
               id="path2981" />
          </g>
          <path
             d="m 799.904,58.446 h 0.708 v -3.914 h -0.708 z m -0.037,1.58 h 0.781 v -0.772 h -0.781 z"
             style="fill:#656263;fill-opacity:1;fill-rule:nonzero;stroke:none"
             id="path2983" />
          <g
             id="g2985"
             transform="translate(804.2838,54.5321)">
            <path
               d="M 0,0 -1.689,1.735 H -1.716 V 0 h -0.709 v 5.449 h 0.709 V 2.398 h 0.018 l 1.535,1.516 H 0.808 L -1.044,2.08 0.999,0 Z"
               style="fill:#656263;fill-opacity:1;fill-rule:nonzero;stroke:none"
               id="path2987" />
          </g>
          <path
             d="M 769.32,52.441 H 738.782 V 84.769 H 769.32 Z"
             style="fill:#127bca;fill-opacity:1;fill-rule:nonzero;stroke:none"
             id="path2989" />
          <g
             id="g2991"
             transform="translate(738.7831,70.7423)">
            <path
               d="m 0,0 c 1.493,-0.78 3.188,-1.228 4.989,-1.231 5.974,0.01 10.807,4.843 10.817,10.815 -0.002,1.586 -0.353,3.087 -0.967,4.442 h 1.414 c 0.543,-1.376 0.852,-2.872 0.852,-4.442 0,-2.707 -0.888,-5.206 -2.387,-7.223 3.849,2.87 8.622,4.568 13.793,4.568 0.683,0 1.358,-0.035 2.026,-0.094 V 5.53 C 29.87,5.593 29.194,5.629 28.511,5.631 16.47,5.608 6.732,-4.13 6.711,-16.168 c 10e-4,-0.72 0.039,-1.431 0.108,-2.133 H 5.513 c -0.065,0.702 -0.102,1.413 -0.102,2.133 0,5.921 2.229,11.322 5.892,15.41 -1.838,-1.125 -4,-1.773 -6.314,-1.773 -1.78,0 -3.466,0.394 -4.989,1.084 z"
               style="fill:#ffffff;fill-opacity:1;fill-rule:nonzero;stroke:none"
               id="path2993" />
          </g>
        </g>
      </g>
    </g>
  </g>
</svg>
